<?xml version="1.0" encoding="utf-8"?>
<!-- Generator: Adobe Illustrator 24.1.2, SVG Export Plug-In . SVG Version: 6.00 Build 0)  -->
<svg version="1.1" id="Layer_1" xmlns="http://www.w3.org/2000/svg" xmlns:xlink="http://www.w3.org/1999/xlink" x="0px" y="0px"
	 viewBox="0 0 48 48" style="enable-background:new 0 0 48 48;" xml:space="preserve">
<path d="M42,41.6v-7.1c0-0.8-0.7-1.4-1.5-1.4h-2c-0.8,0-1.5-0.6-1.5-1.4V16.4c0-0.8,0.7-1.4,1.5-1.4h2c0.8,0,1.5-0.6,1.5-1.4V6.4
	C42,5.6,42.7,5,43.5,5l0,0C44.3,5,45,5.6,45,6.4v35.1c0,0.8-0.7,1.4-1.5,1.4l0,0C42.7,43,42,42.4,42,41.6z M3,41.6V6.4
	C3,5.6,3.7,5,4.5,5h0C5.3,5,6,5.6,6,6.4v7.1C6,14.3,6.7,15,7.5,15h2c0.8,0,1.5,0.6,1.5,1.4v15.2c0,0.8-0.7,1.4-1.5,1.4h-2
	C6.7,33,6,33.7,6,34.4v7.1C6,42.4,5.3,43,4.5,43h0C3.7,43,3,42.4,3,41.6z"/>
<path d="M28.7,9.1h-9.4c-1.1,0-1.9-0.9-1.9-1.9v0c0-1.1,0.9-1.9,1.9-1.9h9.4c1.1,0,1.9,0.9,1.9,1.9v0C30.6,8.3,29.8,9.1,28.7,9.1z"
	/>
</svg>
