<?xml version="1.0" encoding="utf-8"?>
<!-- Generator: Adobe Illustrator 24.1.2, SVG Export Plug-In . SVG Version: 6.00 Build 0)  -->
<svg version="1.1" id="Layer_1" xmlns="http://www.w3.org/2000/svg" xmlns:xlink="http://www.w3.org/1999/xlink" x="0px" y="0px"
	 viewBox="0 0 48 48" style="enable-background:new 0 0 48 48;" xml:space="preserve">
<style type="text/css">
	.st0{fill:none;stroke:#000000;stroke-miterlimit:10;}
</style>
<path d="M9,42c-0.8,0-1.5-0.3-2.1-0.9C6.3,40.5,6,39.8,6,39V9c0-0.8,0.3-1.5,0.9-2.1S8.2,6,9,6h30c0.8,0,1.5,0.3,2.1,0.9
	C41.7,7.5,42,8.2,42,9v30c0,0.8-0.3,1.5-0.9,2.1C40.5,41.7,39.8,42,39,42H9z M9,39h30V9H9V39z M9,9v30V9z M22.5,14.1H11.9
	c-0.7,0-1.2-0.7-1.2-1.5v0c0-0.9,0.6-1.5,1.2-1.5h10.5c0.7,0,1.2,0.7,1.2,1.5v0C23.7,13.4,23.2,14.1,22.5,14.1z M36.9,14.1H26.3
	c-0.7,0-1.2-0.7-1.2-1.5v0c0-0.9,0.6-1.5,1.2-1.5h10.5c0.7,0,1.2,0.7,1.2,1.5v0C38.1,13.4,37.6,14.1,36.9,14.1z M17.3,18.5h-5
	c-0.9,0-1.5-0.7-1.5-1.5v0c0-0.9,0.7-1.5,1.5-1.5h5c0.9,0,1.5,0.7,1.5,1.5v0C18.8,17.8,18.1,18.5,17.3,18.5z M36.2,18.5h-5
	c-0.9,0-1.5-0.7-1.5-1.5v0c0-0.9,0.7-1.5,1.5-1.5h5c0.9,0,1.5,0.7,1.5,1.5v0C37.7,17.8,37,18.5,36.2,18.5z"/>
<path d="M11.3,34h10.5c0.7,0,1.2,0.7,1.2,1.5v0c0,0.9-0.6,1.5-1.2,1.5H11.3c-0.7,0-1.2-0.7-1.2-1.5v0C10,34.7,10.6,34,11.3,34z
	 M12,29.6h5c0.9,0,1.5,0.7,1.5,1.5v0c0,0.9-0.7,1.5-1.5,1.5h-5c-0.9,0-1.5-0.7-1.5-1.5v0C10.4,30.3,11.1,29.6,12,29.6z"/>
<path class="st0" d="M29.3,21"/>
<path class="st0" d="M22.6,27.8"/>
</svg>
