<svg width="1130" height="963" xmlns="http://www.w3.org/2000/svg" xmlns:xlink="http://www.w3.org/1999/xlink" xml:space="preserve" overflow="hidden"><defs><clipPath id="clip0"><rect x="1635" y="680" width="1130" height="963"/></clipPath></defs><g clip-path="url(#clip0)" transform="translate(-1635 -680)"><path d="M1635 1402C1635 1369.97 1660.97 1344 1693 1344L1919 1344C1951.03 1344 1977 1369.97 1977 1402L1977 1402C1977 1434.03 1951.03 1460 1919 1460L1693 1460C1660.97 1460 1635 1434.03 1635 1402Z" fill="#BCBCBC" fill-rule="evenodd"/><path d="M1635 738.5C1635 706.191 1661.19 680 1693.5 680L2105.5 680C2137.81 680 2164 706.191 2164 738.5L2164 738.5C2164 770.809 2137.81 797 2105.5 797L1693.5 797C1661.19 797 1635 770.809 1635 738.5Z" fill="#BCBCBC" fill-rule="evenodd"/><path d="M2423 1402C2423 1369.97 2448.97 1344 2481 1344L2707 1344C2739.03 1344 2765 1369.97 2765 1402L2765 1402C2765 1434.03 2739.03 1460 2707 1460L2481 1460C2448.97 1460 2423 1434.03 2423 1402Z" fill="#BCBCBC" fill-rule="evenodd"/><path d="M1635 929.5C1635 897.191 1661.19 871 1693.5 871L1918.5 871C1950.81 871 1977 897.191 1977 929.5L1977 929.5C1977 961.809 1950.81 988 1918.5 988L1693.5 988C1661.19 988 1635 961.809 1635 929.5Z" fill="#BCBCBC" fill-rule="evenodd"/><path d="M2423 927.5C2423 895.191 2449.19 869 2481.5 869L2706.5 869C2738.81 869 2765 895.191 2765 927.5L2765 927.5C2765 959.809 2738.81 986 2706.5 986L2481.5 986C2449.19 986 2423 959.809 2423 927.5Z" fill="#BCBCBC" fill-rule="evenodd"/><path d="M2236 1584.5C2236 1552.19 2262.19 1526 2294.5 1526L2706.5 1526C2738.81 1526 2765 1552.19 2765 1584.5L2765 1584.5C2765 1616.81 2738.81 1643 2706.5 1643L2294.5 1643C2262.19 1643 2236 1616.81 2236 1584.5Z" fill="#BCBCBC" fill-rule="evenodd"/><path d="M2236 738.5C2236 706.191 2262.19 680 2294.5 680L2706.5 680C2738.81 680 2765 706.191 2765 738.5L2765 738.5C2765 770.809 2738.81 797 2706.5 797L2294.5 797C2262.19 797 2236 770.809 2236 738.5Z" fill="#BCBCBC" fill-rule="evenodd"/><path d="M1635 1584.5C1635 1552.19 1661.19 1526 1693.5 1526L2105.5 1526C2137.81 1526 2164 1552.19 2164 1584.5L2164 1584.5C2164 1616.81 2137.81 1643 2105.5 1643L1693.5 1643C1661.19 1643 1635 1616.81 1635 1584.5Z" fill="#BCBCBC" fill-rule="evenodd"/></g></svg>