<svg xmlns="http://www.w3.org/2000/svg" xmlns:xlink="http://www.w3.org/1999/xlink" width="48" height="48" viewBox="0 0 48 48">
  <defs>
    <clipPath id="clip-path">
      <rect id="Rectangle_15733" data-name="Rectangle 15733" width="33.8" height="32.529" fill="none" stroke="#b1b2bf" stroke-width="1"/>
    </clipPath>
  </defs>
  <g id="Analysis" transform="translate(-15 -606)">
    <g id="Group_698" data-name="Group 698" transform="translate(-433 484)">
      <rect id="Rectangle_14919" data-name="Rectangle 14919" width="48" height="48" transform="translate(448 122)" fill="none"/>
    </g>
    <g id="Group_849" data-name="Group 849" transform="translate(24.1 613.735)">
      <g id="Group_848" data-name="Group 848" transform="translate(-2 0)" clip-path="url(#clip-path)">
        <path id="Path_642" data-name="Path 642" d="M1,30.644s2.83,0,5.516-16.547C7.956,5.224,9.27,4.056,10.709,4.056c1.727,0,2.033,1.369,2.358,2.021" transform="translate(1.526 -0.641)" fill="none" stroke="#b1b2bf" stroke-linecap="round" stroke-miterlimit="10" stroke-width="3"/>
        <path id="Path_643" data-name="Path 643" d="M8.314,31.117s1.99-.046,4.676-13.843c1.44-7.4,2.843-10.518,4.282-10.518.691,0,1.435,1.218,2.142,2.87" transform="translate(0.37 -1.067)" fill="none" stroke="#b1b2bf" stroke-linecap="round" stroke-miterlimit="10" stroke-width="3"/>
        <path id="Path_644" data-name="Path 644" d="M15.257,31.791s1.079-.28,3.764-12.51c1.441-6.558,2.843-9.324,4.282-9.324,1.005,0,2.119,2.284,3.075,4.709" transform="translate(-0.726 -1.573)" fill="none" stroke="#b1b2bf" stroke-linecap="round" stroke-miterlimit="10" stroke-width="3"/>
        <path id="Path_645" data-name="Path 645" d="M37.262,25.833A7.373,7.373,0,0,1,34.4,31.677l-1.347-2.206a4.826,4.826,0,0,0-.48-7.637l1.221-2.257a7.353,7.353,0,0,1,3.469,6.256" transform="translate(-3.462 -3.093)" fill="#6c6d75" stroke="rgba(0,0,0,0)" stroke-width="1"/>
        <path id="Path_646" data-name="Path 646" d="M30.378,18.63l-1.246,2.3a4.507,4.507,0,0,0-1.17-.152,4.849,4.849,0,0,0-4.85,4.842,4.637,4.637,0,0,0,.143,1.145L20.88,27.824a7.642,7.642,0,0,1-.328-2.206,7.408,7.408,0,0,1,7.41-7.4,7.212,7.212,0,0,1,2.417.413" transform="translate(-1.563 -2.878)" fill="#6c6d75" stroke="rgba(0,0,0,0)" stroke-width="1"/>
        <path id="Path_647" data-name="Path 647" d="M31.251,34.24a7.4,7.4,0,0,1-9.489-2.981l2.358-1.053a4.846,4.846,0,0,0,4.033,2.156,4.71,4.71,0,0,0,1.76-.337Z" transform="translate(-1.754 -4.772)" fill="#6c6d75" stroke="rgba(0,0,0,0)" stroke-width="1"/>
      </g>
    </g>
  </g>
</svg>
