<svg width="1512" height="357" xmlns="http://www.w3.org/2000/svg" xmlns:xlink="http://www.w3.org/1999/xlink" xml:space="preserve" overflow="hidden"><defs><clipPath id="clip0"><rect x="1178" y="707" width="1512" height="357"/></clipPath><clipPath id="clip1"><rect x="1271" y="720" width="331" height="331"/></clipPath><clipPath id="clip2"><rect x="1271" y="720" width="331" height="331"/></clipPath><clipPath id="clip3"><rect x="1271" y="720" width="331" height="331"/></clipPath></defs><g clip-path="url(#clip0)" transform="translate(-1178 -707)"><path d="M1183 712 2627.17 712 2685 769.835 2685 1059 2685 1059 1240.83 1059 1183 1001.17 1183 712Z" stroke="#002060" stroke-width="10.3125" stroke-miterlimit="8" fill="none" fill-rule="evenodd"/><text fill="#002060" font-family="Futura Light,Futura Light_MSFontService,sans-serif" font-weight="700" font-size="147" transform="matrix(1 0 0 1 1724.97 929)">LOGO HERE</text><g clip-path="url(#clip1)"><g clip-path="url(#clip2)"><g clip-path="url(#clip3)"><path d="M1423.5 751.891C1476.74 751.84 1519.95 794.963 1520 848.209 1520 849.488 1519.98 850.768 1519.93 852.046L1519.92 852.171 1519.92 855.85 1520.84 857.441 1544.56 898.703 1544.65 898.863 1544.75 899.017C1546.98 901.71 1547.64 905.376 1546.49 908.679 1545.51 910.677 1543.64 912.087 1541.45 912.471L1519.92 912.471 1519.92 939.976C1519.96 949.042 1516.49 957.771 1510.25 964.342 1503.9 970.756 1495.26 974.365 1486.23 974.362L1462.51 974.362 1462.51 1015.63 1367.63 1015.63 1367.63 932.133 1364.96 930.069C1340.9 911.472 1326.88 882.711 1327.07 852.296L1327.07 852.172 1327.06 852.047C1325 798.841 1366.45 754.032 1419.66 751.964 1420.94 751.914 1422.22 751.89 1423.5 751.891M1423.5 745.016C1366.45 744.965 1320.17 791.166 1320.12 848.209 1320.12 849.572 1320.14 850.935 1320.19 852.296 1320.06 884.827 1335.05 915.574 1360.76 935.507L1360.76 1022.5 1469.39 1022.5 1469.39 981.239 1486.23 981.239C1497.07 981.219 1507.46 976.889 1515.11 969.204 1522.65 961.348 1526.84 950.867 1526.79 939.977L1526.79 919.347 1541.92 919.347C1550.86 918.315 1558.76 907.999 1550.51 895.277L1526.79 854.016 1526.79 852.297C1529 795.296 1484.58 747.299 1427.58 745.093 1426.22 745.04 1424.86 745.015 1423.5 745.016Z" stroke="#002060" stroke-width="3.4375" fill="#002060"/><path d="M1478.29 821.556C1479.7 820.289 1479.82 818.116 1478.55 816.702 1477.3 815.305 1475.16 815.17 1473.74 816.398 1471.74 818.053 1469.39 819.233 1466.86 819.847 1460.41 820.938 1453.78 819.948 1447.93 817.022 1446.16 815.94 1444.49 814.689 1442.97 813.287 1448.68 810.787 1453.42 806.482 1456.46 801.032 1457.33 799.343 1456.66 797.271 1454.97 796.403 1453.28 795.535 1451.21 796.2 1450.34 797.888 1447.81 802.314 1443.79 805.693 1438.99 807.42 1431.92 809.361 1424.48 809.546 1417.32 807.957 1415.98 807.67 1414.3 807.261 1412.61 806.834 1416.48 803.843 1418.79 799.262 1418.9 794.372 1418.86 793.092 1418.85 791.877 1418.85 791.866 1418.83 789.98 1417.3 788.461 1415.41 788.461L1415.38 788.461C1413.48 788.478 1411.96 790.031 1411.98 791.93 1411.98 791.93 1411.99 793.214 1412.03 794.558 1411.86 797.314 1410.49 799.857 1408.28 801.518 1405.21 803.414 1401.86 804.819 1398.35 805.682 1397.51 805.939 1396.72 806.238 1395.9 806.504 1395.24 804.771 1394.32 803.155 1393.15 801.72 1390.86 799.193 1387.92 797.36 1384.64 796.428 1382.81 795.928 1380.92 797.007 1380.42 798.839 1379.92 800.67 1381 802.56 1382.83 803.06 1382.85 803.065 1382.87 803.07 1382.89 803.075 1384.79 803.657 1386.52 804.72 1387.9 806.161 1388.59 807.037 1389.14 808.018 1389.52 809.067 1386.96 810.379 1384.54 811.957 1382.31 813.776 1378.15 817.503 1375.34 822.499 1374.32 827.988 1373.75 827.488 1373.23 826.94 1372.76 826.347 1370.96 823.263 1369.82 819.836 1369.42 816.285 1369.2 814.4 1367.48 813.055 1365.6 813.281 1363.71 813.507 1362.37 815.218 1362.6 817.103 1363.13 821.847 1364.73 826.412 1367.25 830.462 1369.19 832.788 1371.47 834.811 1374.01 836.463 1374.34 841.489 1375.89 846.361 1378.51 850.66 1377.35 852.042 1376.08 853.34 1374.73 854.544 1372.79 856.136 1369.83 858.145 1369.8 858.165 1368.25 859.268 1367.89 861.415 1368.99 862.96 1370.06 864.452 1372.1 864.846 1373.65 863.857 1373.78 863.768 1376.89 861.655 1379.08 859.863 1380.42 858.709 1381.68 857.463 1382.84 856.135 1384.66 857.715 1386.57 859.177 1388.57 860.51 1393.15 863.707 1398.32 867.334 1399.68 872.291 1400.12 875.016 1400.39 877.767 1400.48 880.526L1400.51 908.026 1407.38 908.019 1407.35 880.525C1407.27 877.155 1406.92 873.797 1406.31 870.482 1404.3 863.125 1397.77 858.552 1392.52 854.875 1390.35 853.506 1388.35 851.9 1386.54 850.086 1384.89 848.138 1383.57 845.94 1382.62 843.573 1384.67 842.904 1386.76 842.378 1388.88 841.999 1391.11 841.848 1393.35 841.855 1395.58 842.022 1397.47 842.149 1399.11 840.716 1399.24 838.821 1399.36 836.927 1397.93 835.289 1396.03 835.162 1393.35 834.966 1390.66 834.973 1387.97 835.184 1385.6 835.582 1383.25 836.152 1380.96 836.89 1380.79 835.4 1380.71 833.901 1380.73 832.401 1380.8 827.239 1383.04 822.345 1386.89 818.907 1389.42 816.918 1392.2 815.267 1395.16 813.993 1396.83 813.34 1398.59 812.8 1400.37 812.253 1401.25 811.981 1402.14 811.703 1403.03 811.414 1403.87 811.644 1407.5 812.638 1411.16 813.556 1413.77 816.826 1415.39 820.772 1415.83 824.931 1415.83 829.328 1414.58 833.635 1412.24 837.354 1411.29 838.695 1410.22 839.941 1409.03 841.077 1407.6 842.331 1407.46 844.502 1408.72 845.929 1409.97 847.354 1412.14 847.495 1413.57 846.242 1413.58 846.228 1413.6 846.214 1413.62 846.199 1415.18 844.729 1416.59 843.105 1417.83 841.352 1418.28 840.703 1418.7 840.029 1419.07 839.332 1422.37 838.862 1425.64 838.201 1428.86 837.352 1431.22 836.568 1433.47 835.515 1435.58 834.215 1437.17 833.182 1437.63 831.053 1436.59 829.46 1435.58 827.892 1433.49 827.424 1431.9 828.405 1430.3 829.386 1428.59 830.187 1426.81 830.791 1425.19 831.242 1423.54 831.608 1421.87 831.889 1422.42 829.61 1422.7 827.276 1422.71 824.933 1422.6 821.619 1421.77 818.369 1420.26 815.416 1422.7 815.739 1425.16 815.903 1427.62 815.906 1430.12 815.902 1432.61 815.708 1435.08 815.327 1437.94 818.256 1441.13 820.843 1444.59 823.035 1446.69 824.143 1448.9 825.008 1451.19 825.614 1451.21 825.623 1451.22 825.642 1451.24 825.651 1455.91 827.791 1460.24 830.603 1464.09 833.998 1466.97 837.231 1468.71 841.319 1469.05 845.637 1469.05 847.527 1470.57 849.062 1472.46 849.075L1472.48 849.075C1474.37 849.075 1475.91 847.549 1475.92 845.66 1475.61 839.665 1473.26 833.956 1469.27 829.478 1468.4 828.518 1467.46 827.636 1466.44 826.843 1467.03 826.763 1467.64 826.703 1468.21 826.589 1471.92 825.732 1475.37 824.007 1478.29 821.556Z" stroke="#002060" stroke-width="3.4375" fill="#002060"/><path d="M1494.52 813.659C1494.03 799.443 1482.55 788.068 1468.33 787.706 1465.17 780.741 1459.17 775.471 1451.85 773.238 1444.69 771.05 1436.95 771.854 1430.39 775.465 1425.16 771.561 1418.7 769.668 1412.19 770.132 1405.57 770.729 1399.37 773.629 1394.67 778.326 1393.25 778.122 1391.82 778.019 1390.4 778.017 1379.46 777.914 1369.55 784.439 1365.33 794.524 1353.67 797.71 1345.56 808.269 1345.49 820.354 1345.5 822.527 1345.78 824.691 1346.33 826.793 1340.34 835.531 1340.1 846.984 1345.71 855.97 1345.73 856.706 1345.81 857.438 1345.95 858.16 1349.34 874.842 1364.57 882.396 1370.21 883.915 1370.25 883.925 1370.57 883.995 1370.61 884.004 1380.02 886.008 1381.43 899.915 1381.43 908.027L1388.3 908.027C1388.3 884.286 1378.11 878.572 1371.94 877.261 1368.57 876.353 1355.41 870.219 1352.69 856.774 1352.58 856.133 1352.54 855.483 1352.56 854.834L1352.54 853.806 1351.96 852.959C1347.09 845.832 1347.44 836.37 1352.8 829.612L1353.97 828.151 1353.38 826.377C1352.72 824.437 1352.38 822.404 1352.37 820.355 1352.44 810.824 1359.21 802.658 1368.56 800.818L1370.49 800.433 1371.13 798.575C1373.92 790.33 1381.69 784.81 1390.39 784.891 1392 784.892 1393.61 785.063 1395.18 785.402L1397.21 785.855 1398.55 784.258C1402.15 780.088 1407.23 777.48 1412.72 776.987 1418.24 776.597 1423.67 778.485 1427.76 782.212L1429.76 784.047 1432.01 782.524C1437.23 778.973 1443.77 777.974 1449.81 779.808 1455.88 781.674 1460.69 786.311 1462.79 792.3L1463.61 794.569 1467.4 794.569C1478.48 794.467 1487.54 803.356 1487.66 814.432L1487.66 817.649 1489.44 818.628C1496.17 822.342 1500.11 829.65 1499.52 837.316 1498.45 848.055 1489.25 856.136 1478.46 855.816L1447.86 855.816C1432.94 855.875 1420.8 867.837 1420.53 882.751L1420.53 908.026 1427.4 908.026 1427.4 882.803C1427.63 871.656 1436.71 862.728 1447.86 862.691L1478.46 862.691C1492.88 863.009 1505.07 852.113 1506.38 837.756 1507.11 828.164 1502.56 818.934 1494.52 813.659Z" stroke="#002060" stroke-width="3.4375" fill="#002060"/></g></g></g></g></svg>