<svg xmlns="http://www.w3.org/2000/svg" xmlns:xlink="http://www.w3.org/1999/xlink" width="48" height="48" viewBox="0 0 48 48">
  <defs>
    <clipPath id="clip-path">
      <rect id="Rectangle_51" data-name="Rectangle 51" width="16.015" height="10.384" transform="translate(0 0)" fill="#6c6d75"/>
    </clipPath>
  </defs>
  <g id="Patient_List" data-name="Patient List" transform="translate(-15 -311)">
    <g id="Group_168" data-name="Group 168" transform="translate(-433 189)">
      <rect id="Rectangle_14919" data-name="Rectangle 14919" width="48" height="48" transform="translate(448 122)" fill="none"/>
    </g>
    <g id="Group_850" data-name="Group 850" transform="translate(36.714 323.397)">
      <g id="Group_8" data-name="Group 8" transform="translate(-20.714 -3)" clip-path="url(#clip-path)">
        <path id="Path_11" data-name="Path 11" d="M22.909,2.571a2.473,2.473,0,0,1-2.36,2.571,2.472,2.472,0,0,1-2.36-2.571A2.472,2.472,0,0,1,20.549,0a2.473,2.473,0,0,1,2.36,2.571" transform="translate(-9.392 0)" fill="#6c6d75"/>
        <path id="Path_13" data-name="Path 13" d="M22.582,16.5c0,.14.029.411-.476.411H13.156a.384.384,0,0,1-.436-.411c0-2.128,2.21-3.855,4.933-3.855s4.929,1.727,4.929,3.855" transform="translate(-6.568 -6.531)" fill="#6c6d75"/>
      </g>
    </g>
    <g id="Group_851" data-name="Group 851" transform="translate(36.714 342.616)">
      <g id="Group_8-2" data-name="Group 8" transform="translate(-20.714 -3)" clip-path="url(#clip-path)">
        <path id="Path_11-2" data-name="Path 11" d="M22.909,2.571a2.473,2.473,0,0,1-2.36,2.571,2.472,2.472,0,0,1-2.36-2.571A2.472,2.472,0,0,1,20.549,0a2.473,2.473,0,0,1,2.36,2.571" transform="translate(-9.392 0)" fill="#6c6d75"/>
        <path id="Path_13-2" data-name="Path 13" d="M22.582,16.5c0,.14.029.411-.476.411H13.156a.384.384,0,0,1-.436-.411c0-2.128,2.21-3.855,4.933-3.855s4.929,1.727,4.929,3.855" transform="translate(-6.568 -6.531)" fill="#6c6d75"/>
      </g>
    </g>
    <path id="Line_128" data-name="Line 128" d="M19,1.5H0A1.5,1.5,0,0,1-1.5,0,1.5,1.5,0,0,1,0-1.5H19A1.5,1.5,0,0,1,20.5,0,1.5,1.5,0,0,1,19,1.5Z" transform="translate(38 341.451)" fill="#b1b2bf"/>
    <path id="Line_129" data-name="Line 129" d="M9.5,1.5H0A1.5,1.5,0,0,1-1.5,0,1.5,1.5,0,0,1,0-1.5H9.5A1.5,1.5,0,0,1,11,0,1.5,1.5,0,0,1,9.5,1.5Z" transform="translate(38 347.451)" fill="#b1b2bf"/>
    <path id="Line_127" data-name="Line 127" d="M19,1.5H0A1.5,1.5,0,0,1-1.5,0,1.5,1.5,0,0,1,0-1.5H19A1.5,1.5,0,0,1,20.5,0,1.5,1.5,0,0,1,19,1.5Z" transform="translate(38 323.643)" fill="#b1b2bf"/>
    <path id="Line_130" data-name="Line 130" d="M9.5,1.5H0A1.5,1.5,0,0,1-1.5,0,1.5,1.5,0,0,1,0-1.5H9.5A1.5,1.5,0,0,1,11,0,1.5,1.5,0,0,1,9.5,1.5Z" transform="translate(38 328.835)" fill="#b1b2bf"/>
  </g>
</svg>
